<?xml version="1.0" encoding="UTF-8" standalone="no"?>
<!DOCTYPE svg PUBLIC "-//W3C//DTD SVG 1.1//EN" "http://www.w3.org/Graphics/SVG/1.1/DTD/svg11.dtd">
<svg width="100%" height="100%" viewBox="0 0 32 32" version="1.1" xmlns="http://www.w3.org/2000/svg" xmlns:xlink="http://www.w3.org/1999/xlink" xml:space="preserve" xmlns:serif="http://www.serif.com/" style="fill-rule:evenodd;clip-rule:evenodd;stroke-linecap:round;stroke-linejoin:round;stroke-miterlimit:1.5;">
    <g transform="matrix(0.0271125,0,0,0.0241102,-3.05889,2.69611)">
        <path d="M1237.65,142.633C1228.62,72.093 1180.33,-9.544 1112.82,-47.505C1082.64,-64.472 1048.26,-71.716 1023.65,-76.518C929.457,-94.901 794.609,-64.985 706.532,47.613C666.309,-0.189 617.394,-39.289 561.268,-56.866C512.433,-72.16 445.449,-85.11 388.852,-77.053C325.209,-67.994 181.987,-39.677 166.477,150.54C158.682,227.958 177.137,300.191 217.108,367.239L217.108,1054.43C217.108,1126.57 269.19,1185.14 333.34,1185.14L1071.24,1185.14C1135.39,1185.14 1187.47,1126.57 1187.47,1054.43L1186.5,366.342C1235.68,286.731 1248.37,226.395 1237.65,142.633Z" style="fill:rgb(250,234,207);stroke:rgb(197,125,0);stroke-width:54.57px;"/>
    </g>
</svg>
